<?xml version="1.0" encoding="UTF-8"?>
<svg xmlns="http://www.w3.org/2000/svg" xmlns:xlink="http://www.w3.org/1999/xlink" width="159.2pt" height="159.2pt" viewBox="0 0 159.2 159.2" version="1.1">
<defs>
<clipPath id="clip1">
  <path d="M 0 0 L 159.199219 0 L 159.199219 159.199219 L 0 159.199219 Z M 0 0 "/>
</clipPath>
<clipPath id="clip2">
  <path d="M 0 79 L 159.199219 79 L 159.199219 159.199219 L 0 159.199219 Z M 0 79 "/>
</clipPath>
</defs>
<g id="surface1">
<g clip-path="url(#clip1)" clip-rule="nonzero">
<path style=" stroke:none;fill-rule:evenodd;fill:rgb(45.483398%,80.076599%,7.446289%);fill-opacity:1;" d="M 79.636719 -0.0585938 C 123.601563 -0.0585938 159.242188 35.578125 159.242188 79.542969 C 159.242188 123.511719 123.601563 159.152344 79.636719 159.152344 C 35.671875 159.152344 0.03125 123.511719 0.03125 79.542969 C 0.03125 35.578125 35.671875 -0.0585938 79.636719 -0.0585938 Z M 79.636719 -0.0585938 "/>
</g>
<g clip-path="url(#clip2)" clip-rule="nonzero">
<path style=" stroke:none;fill-rule:evenodd;fill:rgb(100%,92.576599%,0%);fill-opacity:1;" d="M 159.242188 79.507813 L 159.242188 79.542969 C 159.242188 123.511719 123.601563 159.152344 79.636719 159.152344 C 35.671875 159.152344 0.03125 123.511719 0.03125 79.542969 L 0.03125 79.507813 Z M 159.242188 79.507813 "/>
</g>
<path style=" stroke:none;fill-rule:evenodd;fill:rgb(25.87738%,83.201599%,95.701599%);fill-opacity:1;" d="M 79.636719 9.089844 C 118.550781 9.089844 150.09375 40.636719 150.09375 79.542969 C 150.09375 118.457031 118.550781 150 79.636719 150 C 40.726563 150 9.183594 118.457031 9.183594 79.542969 C 9.183594 40.636719 40.726563 9.089844 79.636719 9.089844 Z M 79.636719 9.089844 "/>
<path style=" stroke:none;fill-rule:evenodd;fill:rgb(1.567078%,12.547302%,17.259216%);fill-opacity:1;" d="M 60.027344 91.136719 C 80.15625 72.617188 102.617188 56.847656 124.917969 41.078125 C 126.277344 42.757813 127.648438 44.4375 129.007813 46.121094 C 123.476563 50.554688 118.449219 55.546875 113.40625 60.515625 C 97.109375 76.578125 81.726563 93.535156 66.75 110.816406 C 64.476563 113.335938 62.25 115.898438 59.996094 118.4375 C 50.078125 106.238281 40.046875 94.117188 30.066406 81.964844 L 30.757813 81.292969 C 33.519531 78.695313 36.46875 76.292969 39.398438 73.886719 C 46.207031 79.714844 53.1875 85.347656 60.027344 91.136719 Z M 60.027344 91.136719 "/>
</g>
</svg>
